<svg width="45" height="45" viewBox="0 0 45 45" fill="none" xmlns="http://www.w3.org/2000/svg">
<path d="M12 40.6902V37.2C12 36.0861 12.4425 35.0178 13.2302 34.2302C14.0178 33.4425 15.0861 33 16.2 33H28.8C29.9139 33 30.9822 33.4425 31.7698 34.2302C32.5575 35.0178 33 36.0861 33 37.2V40.6902M43.5 22.5C43.5 34.098 34.098 43.5 22.5 43.5C10.902 43.5 1.5 34.098 1.5 22.5C1.5 10.902 10.902 1.5 22.5 1.5C34.098 1.5 43.5 10.902 43.5 22.5ZM28.8 18.3C28.8 21.7794 25.9794 24.6 22.5 24.6C19.0206 24.6 16.2 21.7794 16.2 18.3C16.2 14.8206 19.0206 12 22.5 12C25.9794 12 28.8 14.8206 28.8 18.3Z" stroke="#555A5C" stroke-width="3" stroke-linecap="round" stroke-linejoin="round"/>
</svg>
