<svg width="42" height="42" viewBox="0 0 42 42" fill="none" xmlns="http://www.w3.org/2000/svg">
<path d="M21 10.5V3.5H14M26.25 19.25V22.75M3.5 21H7M35 21H38.5M15.75 19.25V22.75M35 28C35 28.9283 34.6313 29.8185 33.9749 30.4749C33.3185 31.1313 32.4283 31.5 31.5 31.5H15.449C14.5208 31.5002 13.6307 31.8691 12.9745 32.5255L9.121 36.379C8.94723 36.5527 8.72586 36.671 8.48486 36.719C8.24386 36.7669 7.99406 36.7423 7.76704 36.6483C7.54002 36.5542 7.34598 36.395 7.20945 36.1907C7.07292 35.9864 7.00003 35.7462 7 35.5005V14C7 13.0717 7.36875 12.1815 8.02513 11.5251C8.6815 10.8687 9.57174 10.5 10.5 10.5H31.5C32.4283 10.5 33.3185 10.8687 33.9749 11.5251C34.6313 12.1815 35 13.0717 35 14V28Z" stroke="#555A5C" stroke-width="3" stroke-linecap="round" stroke-linejoin="round"/>
</svg>
