<svg width="42" height="42" viewBox="0 0 42 42" fill="none" xmlns="http://www.w3.org/2000/svg">
<path d="M17.5 21H24.5M17.5 14H24.5M24.5 36.75V31.5C24.5 30.5717 24.1313 29.6815 23.4749 29.0251C22.8185 28.3687 21.9283 28 21 28C20.0717 28 19.1815 28.3687 18.5251 29.0251C17.8687 29.6815 17.5 30.5717 17.5 31.5V36.75M10.5 17.5H7C6.07174 17.5 5.1815 17.8687 4.52513 18.5251C3.86875 19.1815 3.5 20.0717 3.5 21V33.25C3.5 34.1783 3.86875 35.0685 4.52513 35.7249C5.1815 36.3813 6.07174 36.75 7 36.75H35C35.9283 36.75 36.8185 36.3813 37.4749 35.7249C38.1313 35.0685 38.5 34.1783 38.5 33.25V15.75C38.5 14.8217 38.1313 13.9315 37.4749 13.2751C36.8185 12.6187 35.9283 12.25 35 12.25H31.5M10.5 36.75V8.75C10.5 7.82174 10.8687 6.9315 11.5251 6.27513C12.1815 5.61875 13.0717 5.25 14 5.25H28C28.9283 5.25 29.8185 5.61875 30.4749 6.27513C31.1313 6.9315 31.5 7.82174 31.5 8.75V36.75" stroke="#555A5C" stroke-width="3" stroke-linecap="round" stroke-linejoin="round"/>
</svg>
