<svg width="16" height="16" viewBox="0 0 16 16" fill="none" xmlns="http://www.w3.org/2000/svg">
<g clip-path="url(#clip0_190_129)">
<path d="M7.99985 0.0012207C3.58898 0.0012207 0 3.58842 0 8.00041C0 12.4107 3.58898 15.9997 7.99985 15.9997C12.4112 15.9997 16 12.4107 16 8.00041C16 3.58842 12.4112 0.0012207 7.99985 0.0012207ZM7.99985 14.2175C4.57127 14.2175 1.78223 11.4286 1.78223 8.00046C1.78223 4.57088 4.57127 1.78202 7.99985 1.78202C11.4288 1.78202 14.2179 4.57093 14.2179 8.00046C14.2178 11.4286 11.4288 14.2175 7.99985 14.2175Z" fill="#E8E9EB"/>
<path d="M10.6256 9.44899C10.1146 10.326 9.16431 10.87 8.14571 10.87C6.56389 10.87 5.27542 9.58179 5.27542 7.99994C5.27542 6.41677 6.56389 5.12817 8.14571 5.12817C9.16436 5.12817 10.1146 5.67418 10.6256 6.5494L10.6917 6.66378H12.6197L12.504 6.35338C12.1685 5.46457 11.5798 4.70886 10.8006 4.16947C10.0193 3.62869 9.1017 3.3418 8.14571 3.3418C5.5776 3.3418 3.48914 5.43204 3.48914 7.99994C3.48914 10.568 5.5776 12.6563 8.14571 12.6563C9.1017 12.6563 10.0193 12.3704 10.8006 11.8287C11.5798 11.2892 12.1685 10.5338 12.504 9.64497L12.6197 9.33439H10.6917L10.6256 9.44899Z" fill="#E8E9EB"/>
</g>
<defs>
<clipPath id="clip0_190_129">
<rect width="16" height="16" fill="white"/>
</clipPath>
</defs>
</svg>
