<svg width="42" height="42" viewBox="0 0 42 42" fill="none" xmlns="http://www.w3.org/2000/svg">
<path d="M31.5 36.75C31.5 33.037 30.025 29.476 27.3995 26.8505C24.774 24.225 21.213 22.75 17.5 22.75M17.5 22.75C13.787 22.75 10.226 24.225 7.60051 26.8505C4.975 29.476 3.5 33.037 3.5 36.75M17.5 22.75C22.3325 22.75 26.25 18.8325 26.25 14C26.25 9.16751 22.3325 5.25 17.5 5.25C12.6675 5.25 8.75 9.16751 8.75 14C8.75 18.8325 12.6675 22.75 17.5 22.75ZM38.5 35C38.5 29.1025 35 23.625 31.5 21C32.6505 20.1368 33.5705 19.0034 34.1785 17.7C34.7865 16.3965 35.0639 14.9633 34.986 13.5272C34.9082 12.091 34.4775 10.6962 33.7321 9.4661C32.9867 8.23605 31.9496 7.20871 30.7125 6.475" stroke="#555A5C" stroke-width="3" stroke-linecap="round" stroke-linejoin="round"/>
</svg>
